OpenSim_Sub08_EMGBaseline_GRF.mot
version=1
nRows=36
nColumns=19
inDegrees=no
endheader
time	lFx	lFy	lFz	lCOPx	lCOPy	lCOPz	rFx	rFy	rFz	rCOPx	rCOPy	rCOPz	lMx	lMy	lMz	rMx	rMy	rMz
0	-1.21994105	292.61337800	23.99406959	0.57714213	0	-0.65763609	1.72202546	244.09879220	-24.27941990	0.61660617	0	-0.37307475	0	0.42778986	0	0	0.72710093	0.00000000
0.01000000	0.37549681	291.16709270	24.31328241	0.57485244	0	-0.65624670	0.87307051	243.70945678	-24.16710778	0.61705523	0	-0.37325606	0	0.53189578	0	0	0.45910619	-0.00000000
0.02000000	1.32523309	290.45638142	24.49440009	0.57356432	0	-0.65543050	0.36947425	243.37398689	-24.13738748	0.61735596	0	-0.37331330	0	0.60335797	0	0	0.30398808	0
0.03000000	1.68592132	290.41997521	24.55155159	0.57323465	0	-0.65518068	0.19124653	243.04988896	-24.15465350	0.61738586	0	-0.37327932	0	0.63517905	0	0	0.25708597	-0.00000000
0.04000000	1.74612989	290.66294295	24.53401041	0.57348713	0	-0.65523011	0.18463167	242.71495497	-24.15391530	0.61729971	0	-0.37318063	0	0.64164769	0	0	0.25586038	0
0.05000000	1.70243267	290.88170663	24.48534864	0.57385593	0	-0.65536129	0.22716312	242.39266207	-24.11576353	0.61723797	0	-0.37307976	0	0.62892347	0	0	0.26126040	0
0.06000000	1.65834159	291.01144889	24.41625876	0.57406502	0	-0.65548912	0.27422410	242.11204858	-24.06223307	0.61712157	0	-0.37305414	0	0.61629875	0	0	0.26659486	0
0.07000000	1.65600774	291.12463423	24.33530290	0.57413494	0	-0.65565070	0.31317603	241.90267332	-24.02761633	0.61688556	0	-0.37311228	0	0.62147976	0	0	0.26935913	0
0.08000000	1.68119574	291.25623254	24.28500658	0.57416776	0	-0.65577250	0.34452427	241.78111758	-24.01769136	0.61669777	0	-0.37319282	0	0.63818333	0	0	0.26219202	0
0.09000000	1.71489874	291.42571534	24.27255346	0.57420593	0	-0.65580354	0.38557974	241.75236083	-24.00652250	0.61658228	0	-0.37326518	0	0.65883297	0	0	0.25063598	-0.00000000
0.10000000	1.75344488	291.60916089	24.25694432	0.57428905	0	-0.65577643	0.43978065	241.81652333	-23.98385953	0.61652710	0	-0.37334883	0	0.68195109	0	0	0.25515660	0
0.11000000	1.77777192	291.73226527	24.21376654	0.57441247	0	-0.65572499	0.46896905	241.97930123	-23.96210330	0.61654139	0	-0.37339805	0	0.70124604	0	0	0.26468555	0
0.12000000	1.79546481	291.74777771	24.14269463	0.57452182	0	-0.65569221	0.47294891	242.24686221	-23.94376771	0.61677407	0	-0.37336732	0	0.70779843	0	0	0.26308539	0
0.13000000	1.79474433	291.64453406	24.07204525	0.57455580	0	-0.65567060	0.46569599	242.56537548	-23.94152642	0.61707096	0	-0.37331479	0	0.71683122	0	0	0.26386424	0
0.14000000	1.77141864	291.43890384	24.01188942	0.57450740	0	-0.65563038	0.45046382	242.86339200	-23.95320866	0.61732211	0	-0.37328129	0	0.73792319	0	0	0.27544962	0
0.15000000	1.73711405	291.14162972	23.93585744	0.57441552	0	-0.65557525	0.40966253	243.08793181	-23.96000405	0.61750977	0	-0.37323029	0	0.76365127	0	0	0.28978680	0
0.16000000	1.70884476	290.77024860	23.83424211	0.57439392	0	-0.65553569	0.32788118	243.21484341	-23.98260123	0.61768402	0	-0.37319908	0	0.78952146	0	0	0.30615499	0
0.17000000	1.69889192	290.36093591	23.71305625	0.57432469	0	-0.65548983	0.21838430	243.25171456	-24.01687178	0.61798148	0	-0.37323566	0	0.81097324	0	0	0.32304059	0
0.18000000	1.70318697	289.93465997	23.57921300	0.57415579	0	-0.65541914	0.11384835	243.21506261	-24.03376240	0.61836006	0	-0.37324920	0	0.83532695	0	0	0.32283132	0
0.19000000	1.69646329	289.57212262	23.44269170	0.57402536	0	-0.65531567	0.03246290	243.08067871	-24.01837673	0.61888129	0	-0.37320600	0	0.87864744	0	0	0.30437717	0
0.20000000	1.66713979	289.31815524	23.30680072	0.57409282	0	-0.65519837	-0.02593949	242.84743298	-23.99446623	0.61944022	0	-0.37313979	0	0.93217405	0	0	0.28362415	0
0.21000000	1.61664901	289.16139495	23.15976553	0.57427925	0	-0.65513995	-0.06357205	242.57748479	-23.98696156	0.61993754	0	-0.37310581	0	0.98111980	0	0	0.26406597	0
0.22000000	1.56040649	289.08795160	23.03865732	0.57443606	0	-0.65517254	-0.09269800	242.34706552	-23.97351447	0.62031610	0	-0.37312323	0	1.00701402	0	0	0.24154953	0.00000000
0.23000000	1.50454401	289.09883020	22.97215595	0.57443756	0	-0.65522696	-0.11420761	242.17947561	-23.92243194	0.62057049	0	-0.37314530	0	1.00665579	0	0	0.20564669	0
0.24000000	1.46615954	289.15819877	22.94295033	0.57420380	0	-0.65525550	-0.13163361	242.08094980	-23.84358920	0.62068284	0	-0.37319620	0	0.98268153	0	0	0.17292075	0
0.25000000	1.44959902	289.27988113	22.93909693	0.57389157	0	-0.65528085	-0.15233586	242.16126658	-23.78117369	0.62082216	0	-0.37323330	0	0.96075591	0	0	0.16558542	0
0.26000000	1.44290401	289.54039633	22.95831692	0.57361311	0	-0.65530251	-0.16805126	242.44742997	-23.74736049	0.62101548	0	-0.37320292	0	0.95944041	0	0	0.17947616	0
0.27000000	1.44984738	290.00836229	22.98843367	0.57343411	0	-0.65531009	-0.16143942	242.88540443	-23.74096089	0.62126950	0	-0.37313564	0	0.97777058	0	0	0.19738299	0
0.28000000	1.49416709	290.65296605	23.02531744	0.57341122	0	-0.65528530	-0.13681471	243.39773913	-23.76845435	0.62138663	0	-0.37309860	0	1.00112578	0	0	0.22070497	0
0.29000000	1.56353754	291.40172328	23.06506544	0.57358436	0	-0.65523620	-0.09952633	243.94383943	-23.83244480	0.62136976	0	-0.37307933	0	1.02253447	0	0	0.23855691	0
0.30000000	1.62938618	292.22944729	23.07582944	0.57392780	0	-0.65522537	-0.05843971	244.44804617	-23.92266541	0.62133010	0	-0.37308648	0	1.03566726	0	0	0.25138356	0
0.31000000	1.68913510	293.01218153	23.02340717	0.57427091	0	-0.65531041	-0.03920849	244.76898013	-24.01977465	0.62136603	0	-0.37312711	0	1.03855672	0	0	0.26808910	0
0.32000000	1.75344107	293.66814690	22.92855157	0.57456508	0	-0.65543321	-0.02907300	244.90269849	-24.09044452	0.62162624	0	-0.37316401	0	1.04187549	0	0	0.28050650	0
0.33000000	1.82481921	294.32243733	22.83773586	0.57489296	0	-0.65551070	-0.01699847	244.87732884	-24.11832228	0.62200039	0	-0.37317656	0	1.05590478	0	0	0.28672773	0
0.34000000	1.90443897	295.11911617	22.79390831	0.57517345	0	-0.65551683	-0.01034373	244.72135325	-24.11669330	0.62221503	0	-0.37317254	0	1.07377459	0	0	0.28817200	0
0.35000000	1.97679573	296.09406145	22.80348334	0.57525778	0	-0.65550483	-0.00565421	244.45015572	-24.09763182	0.62227876	0	-0.37318010	0	1.08238242	0	0	0.28296707	0
